<svg data-v-423bf9ae="" xmlns="http://www.w3.org/2000/svg" viewBox="0 0 309 90" class="iconLeftSlogan"><!----><!----><!----><g data-v-423bf9ae="" id="d5d10484-72ce-4768-8d81-24400a1fd63e" fill="white" transform="matrix(6.772008419036865,0,0,6.772008419036865,107.0880355834961,-38.60044479370117)"><path d="M1.68 6.56L0.43 6.28L0.50 5.89L2.73 5.89L7.29 12.86L7.29 6.51L6.03 6.28L6.09 5.89L9.17 5.89L9.09 6.28L7.96 6.49L7.96 14.42L7.25 14.56L2.37 7.24L2.37 13.78L3.63 13.97L3.56 14.40L0.50 14.40L0.54 14L1.68 13.74L1.68 6.56ZM11.85 7.39L11.85 7.39L11.85 7.39Q11.85 8.19 12.89 9.26L12.89 9.26L12.89 9.26Q13.44 8.86 13.72 8.49L13.72 8.49L13.72 8.49Q13.99 8.12 13.99 7.56L13.99 7.56L13.99 7.56Q13.99 7.01 13.70 6.60L13.70 6.60L13.70 6.60Q13.40 6.19 12.91 6.19L12.91 6.19L12.91 6.19Q12.42 6.19 12.13 6.55L12.13 6.55L12.13 6.55Q11.85 6.90 11.85 7.39ZM12.28 10.11L12.28 10.11Q11.69 10.54 11.34 11.02L11.34 11.02L11.34 11.02Q10.99 11.49 10.99 12.15L10.99 12.15L10.99 12.15Q10.99 12.82 11.40 13.31L11.40 13.31L11.40 13.31Q11.80 13.81 12.48 13.81L12.48 13.81L12.48 13.81Q13.58 13.81 14.39 12.44L14.39 12.44L12.35 10.12L12.28 10.11ZM12.00 9.70L12.00 9.70L12.00 9.70Q11.03 8.70 11.03 7.81L11.03 7.81L11.03 7.81Q11.03 6.92 11.63 6.31L11.63 6.31L11.63 6.31Q12.24 5.70 13.08 5.70L13.08 5.70L13.08 5.70Q13.92 5.70 14.42 6.15L14.42 6.15L14.42 6.15Q14.92 6.60 14.92 7.45L14.92 7.45L14.92 7.45Q14.92 8.04 14.49 8.56L14.49 8.56L14.49 8.56Q14.06 9.08 13.26 9.61L13.26 9.61L13.26 9.66L14.92 11.55L16.17 9.47L15.10 9.22L15.14 8.85L18.05 8.85L17.99 9.22L16.84 9.45L15.34 11.96L15.34 11.96Q16.78 13.67 17.69 13.96L17.69 13.96L17.96 14.04L17.89 14.41L17.89 14.41Q17.54 14.53 17.17 14.53L17.17 14.53L17.17 14.53Q16.32 14.53 15.44 13.56L15.44 13.56L14.79 12.84L14.79 12.84Q13.92 14.11 13.00 14.40L13.00 14.40L13.00 14.40Q12.60 14.53 12.13 14.53L12.13 14.53L12.13 14.53Q11.16 14.53 10.56 13.96L10.56 13.96L10.56 13.96Q9.97 13.39 9.97 12.53L9.97 12.53L9.97 12.53Q9.97 11.67 10.50 11.00L10.50 11.00L10.50 11.00Q11.03 10.32 12.00 9.70ZM21.75 14.40L18.70 14.40L18.75 14.03L19.90 13.77L20.43 6.53L19.17 6.28L19.23 5.89L21.69 5.89L22.20 7.20L24.17 12.56L26.45 6.93L26.91 5.89L29.37 5.89L29.32 6.28L28.15 6.51L28.52 13.81L29.76 13.99L29.72 14.40L26.30 14.40L26.36 14.03L27.51 13.77L27.13 6.97L24.23 14.02L23.63 14.12L21.05 7.16L20.57 13.81L21.82 13.99L21.75 14.40Z"></path></g><!----><g data-v-423bf9ae="" id="f89a05fb-d995-4885-98a9-5546840618b4" transform="matrix(2.8125,0,0,2.8125,0,0)" stroke="none" fill="white"><path d="M15.965 16.258l.707-.707 10.39 10.39-.707.707z"></path><path d="M4.935 26.357L26.018 5.274l.707.707L5.642 27.065z"></path><path d="M31 1v4.194h-4.194V1H31m1-1h-6.194v6.194H32V0zM31 26.806V31h-4.194v-4.194H31m1-1h-6.194V32H32v-6.194zM5.194 26.806V31H1v-4.194h4.194m1-1H0V32h6.194v-6.194z"></path></g><!----><g data-v-423bf9ae="" id="dda76b7d-63f7-4c4a-9d66-af6776bc7247" fill="white" transform="matrix(0.6912233233451843,0,0,0.6912233233451843,109.73733520507812,58.106048583984375)"><path d="M0.87 3.64L0.38 3.64L0.38 3.08L3.89 3.08L3.88 3.64L3.14 3.64L3.14 3.64Q2.80 3.64 2.80 3.82L2.80 3.82L2.80 3.82Q2.80 3.98 2.99 4.48L2.99 4.48L5.60 10.94L8.54 4.18L8.54 4.18Q8.61 3.97 8.61 3.92L8.61 3.92L8.61 3.92Q8.61 3.79 8.51 3.74L8.51 3.74L8.51 3.74Q8.42 3.68 8.27 3.65L8.27 3.65L8.27 3.65Q8.19 3.64 7.92 3.64L7.92 3.64L7.48 3.64L7.45 3.08L10.29 3.08L10.26 3.64L9.86 3.64L9.86 3.64Q9.54 3.64 9.38 3.83L9.38 3.83L9.38 3.83Q9.30 3.93 8.83 4.94L8.83 4.94L8.83 4.94Q8.62 5.46 8.55 5.57L8.55 5.57L5.42 12.63L5.18 12.63L1.93 4.73L1.93 4.73Q1.61 3.93 1.47 3.79L1.47 3.79L1.47 3.79Q1.31 3.63 0.87 3.64L0.87 3.64ZM18.41 7.83L18.41 7.83L18.41 7.83Q18.41 6.62 18.81 5.68L18.81 5.68L18.81 5.68Q19.23 4.72 19.92 4.12L19.92 4.12L19.92 4.12Q20.61 3.51 21.47 3.19L21.47 3.19L21.47 3.19Q22.31 2.88 23.26 2.88L23.26 2.88L23.26 2.88Q24.52 2.88 25.57 3.40L25.57 3.40L25.57 3.40Q26.65 3.93 27.36 5.07L27.36 5.07L27.36 5.07Q28.06 6.17 28.07 7.75L28.07 7.75L28.07 7.75Q28.07 8.70 27.76 9.54L27.76 9.54L27.76 9.54Q27.45 10.38 26.85 11.10L26.85 11.10L26.85 11.10Q26.24 11.81 25.31 12.22L25.31 12.22L25.31 12.22Q24.34 12.63 23.15 12.64L23.15 12.64L23.15 12.64Q22.02 12.64 21.08 12.23L21.08 12.23L21.08 12.23Q20.15 11.83 19.58 11.14L19.58 11.14L19.58 11.14Q19.01 10.45 18.72 9.60L18.72 9.60L18.72 9.60Q18.41 8.72 18.41 7.83ZM19.67 7.38L19.67 7.38L19.67 7.38Q19.67 8.52 20.10 9.60L20.10 9.60L20.10 9.60Q20.50 10.64 21.43 11.33L21.43 11.33L21.43 11.33Q22.34 12.03 23.53 12.04L23.53 12.04L23.53 12.04Q24.90 12.04 25.84 11.01L25.84 11.01L25.84 11.01Q26.79 9.97 26.79 8.10L26.79 8.10L26.79 8.10Q26.79 5.99 25.63 4.72L25.63 4.72L25.63 4.72Q24.48 3.46 22.97 3.45L22.97 3.45L22.97 3.45Q22.45 3.45 21.91 3.65L21.91 3.65L21.91 3.65Q21.36 3.85 20.86 4.25L20.86 4.25L20.86 4.25Q20.31 4.68 19.99 5.48L19.99 5.48L19.99 5.48Q19.67 6.27 19.67 7.38ZM36.57 8.02L36.57 8.02L36.57 8.02Q36.57 6.86 37.04 5.83L37.04 5.83L37.04 5.83Q37.50 4.85 38.25 4.27L38.25 4.27L38.25 4.27Q39.00 3.69 39.89 3.37L39.89 3.37L39.89 3.37Q40.79 3.05 41.63 3.05L41.63 3.05L41.63 3.05Q42.50 3.05 43.17 3.16L43.17 3.16L43.17 3.16Q43.80 3.26 44.09 3.37L44.09 3.37L44.09 3.37Q44.40 3.48 44.43 3.48L44.43 3.48L44.43 3.48Q44.60 3.48 44.63 3.41L44.63 3.41L44.63 3.41Q44.65 3.33 44.65 3.09L44.65 3.09L44.65 2.97L45.19 2.97L45.19 2.97Q45.23 4.30 45.36 5.64L45.36 5.64L44.85 5.65L44.85 5.65Q44.82 5.40 44.81 5.26L44.81 5.26L44.81 5.26Q44.81 5.20 44.80 5.13L44.80 5.13L44.80 5.13Q44.80 5.07 44.79 5.02L44.79 5.02L44.79 5.02Q44.78 4.98 44.78 4.95L44.78 4.95L44.78 4.95Q44.75 4.84 44.75 4.74L44.75 4.74L44.75 4.74Q44.75 4.68 44.71 4.59L44.71 4.59L44.71 4.59Q44.71 4.57 44.68 4.55L44.68 4.55L44.68 4.55Q44.65 4.52 44.65 4.50L44.65 4.50L44.65 4.50Q44.63 4.44 44.56 4.41L44.56 4.41L44.56 4.41Q44.52 4.38 44.49 4.37L44.49 4.37L44.49 4.37Q44.46 4.36 44.43 4.35L44.43 4.35L44.43 4.35Q44.42 4.35 44.40 4.33L44.40 4.33L44.40 4.33Q44.37 4.31 44.33 4.29L44.33 4.29L44.33 4.29Q44.29 4.27 44.25 4.25L44.25 4.25L44.25 4.25Q44.02 4.16 44.00 4.14L44.00 4.14L44.00 4.14Q43.65 3.96 43.00 3.83L43.00 3.83L43.00 3.83Q42.33 3.71 41.67 3.71L41.67 3.71L41.67 3.71Q39.95 3.71 38.86 4.84L38.86 4.84L38.86 4.84Q37.75 5.99 37.75 7.62L37.75 7.62L37.75 7.62Q37.75 9.35 38.97 10.69L38.97 10.69L38.97 10.69Q40.17 12.02 41.99 12.02L41.99 12.02L41.99 12.02Q43.00 12.02 43.94 11.49L43.94 11.49L43.94 11.49Q44.89 10.94 44.92 10.58L44.92 10.58L44.96 9.41L45.45 9.41L45.37 11.45L45.37 11.45Q45.30 11.49 45.17 11.57L45.17 11.57L45.17 11.57Q45.12 11.60 44.65 11.85L44.65 11.85L44.65 11.85Q44.28 12.05 43.83 12.23L43.83 12.23L43.83 12.23Q43.47 12.39 42.82 12.51L42.82 12.51L42.82 12.51Q42.21 12.63 41.64 12.64L41.64 12.64L41.64 12.64Q39.27 12.64 37.91 11.39L37.91 11.39L37.91 11.39Q36.57 10.14 36.57 8.02ZM53.50 12.41L53.48 11.87L53.66 11.87L53.66 11.87Q54.04 11.87 54.17 11.73L54.17 11.73L54.17 11.73Q54.30 11.57 54.63 10.83L54.63 10.83L55.54 8.82L56.12 7.53L56.12 7.53Q56.38 6.97 56.42 6.86L56.42 6.86L56.42 6.86Q56.49 6.70 56.54 6.60L56.54 6.60L56.54 6.60Q56.59 6.51 56.61 6.45L56.61 6.45L56.70 6.21L58.13 2.74L58.43 2.74L58.43 2.74Q59.28 4.98 61.47 10.25L61.47 10.25L61.47 10.25Q61.92 11.34 62.11 11.64L62.11 11.64L62.11 11.64Q62.25 11.87 62.69 11.87L62.69 11.87L62.90 11.87L62.88 12.41L59.69 12.41L59.71 11.87L60.12 11.87L60.12 11.87Q60.74 11.87 60.74 11.70L60.74 11.70L60.74 11.70Q60.74 11.63 60.60 11.27L60.60 11.27L59.56 8.72L56.31 8.72L55.21 11.18L55.21 11.18Q55.07 11.50 55.07 11.63L55.07 11.63L55.07 11.63Q55.07 11.79 55.17 11.83L55.17 11.83L55.17 11.83Q55.26 11.87 55.64 11.87L55.64 11.87L56.22 11.87L56.22 12.41L53.50 12.41ZM58.00 4.79L56.58 8.10L59.32 8.10L58.00 4.79ZM71.12 3.64L70.63 3.64L70.64 3.08L74.23 3.08L74.23 3.64L73.60 3.64L73.60 3.64Q73.22 3.64 73.11 3.72L73.11 3.72L73.11 3.72Q72.99 3.80 72.99 4.16L72.99 4.16L72.99 11.22L72.99 11.22Q72.99 11.57 73.08 11.67L73.08 11.67L73.08 11.67Q73.17 11.77 73.46 11.77L73.46 11.77L73.46 11.77Q76.33 11.74 76.99 11.63L76.99 11.63L76.99 11.63Q77.20 11.61 77.28 11.39L77.28 11.39L77.28 11.39Q77.36 11.17 77.56 10.05L77.56 10.05L78.05 10.08L77.59 12.41L70.83 12.41L70.81 11.87L71.20 11.87L71.20 11.87Q71.71 11.87 71.78 11.80L71.78 11.80L71.78 11.80Q71.86 11.72 71.87 11.33L71.87 11.33L71.87 4.09L71.87 4.09Q71.87 3.80 71.71 3.72L71.71 3.72L71.71 3.72Q71.56 3.64 71.12 3.64L71.12 3.64ZM95.37 3.64L95.35 3.08L102.54 3.08L102.54 3.08Q102.55 4.14 102.61 5.28L102.61 5.28L102.06 5.30L102.06 5.30Q102.05 4.66 101.99 4.25L101.99 4.25L101.99 4.25Q101.95 3.89 101.90 3.80L101.90 3.80L101.90 3.80Q101.84 3.71 101.73 3.69L101.73 3.69L101.73 3.69Q101.63 3.68 101.04 3.68L101.04 3.68L98.66 3.68L98.66 3.68Q98.12 3.68 97.97 3.77L97.97 3.77L97.97 3.77Q97.85 3.86 97.85 4.33L97.85 4.33L97.85 6.28L97.85 6.28Q97.85 6.69 97.90 6.76L97.90 6.76L97.90 6.76Q97.97 6.84 98.31 6.84L98.31 6.84L100.43 6.84L100.43 6.84Q100.79 6.84 100.87 6.74L100.87 6.74L100.87 6.74Q100.95 6.64 100.95 6.17L100.95 6.17L100.95 5.63L101.47 5.63L101.47 8.97L100.95 8.97L100.95 8.26L100.95 8.26Q100.95 7.68 100.87 7.57L100.87 7.57L100.87 7.57Q100.79 7.46 100.45 7.46L100.45 7.46L98.36 7.46L98.36 7.46Q98.02 7.46 97.94 7.54L97.94 7.54L97.94 7.54Q97.85 7.63 97.85 7.89L97.85 7.89L97.85 11.20L97.85 11.20Q97.85 11.60 97.92 11.73L97.92 11.73L97.92 11.73Q98 11.87 98.27 11.87L98.27 11.87L99.20 11.87L99.20 12.41L95.61 12.41L95.61 11.87L96.02 11.87L96.02 11.87Q96.52 11.87 96.62 11.79L96.62 11.79L96.62 11.79Q96.71 11.70 96.71 11.33L96.71 11.33L96.71 4.24L96.71 4.24Q96.71 3.79 96.54 3.71L96.54 3.71L96.54 3.71Q96.41 3.64 95.37 3.64L95.37 3.64ZM111.04 7.83L111.04 7.83L111.04 7.83Q111.04 6.62 111.44 5.68L111.44 5.68L111.44 5.68Q111.86 4.72 112.55 4.12L112.55 4.12L112.55 4.12Q113.24 3.51 114.10 3.19L114.10 3.19L114.10 3.19Q114.94 2.88 115.89 2.88L115.89 2.88L115.89 2.88Q117.15 2.88 118.20 3.40L118.20 3.40L118.20 3.40Q119.28 3.93 119.99 5.07L119.99 5.07L119.99 5.07Q120.69 6.17 120.70 7.75L120.70 7.75L120.70 7.75Q120.70 8.70 120.39 9.54L120.39 9.54L120.39 9.54Q120.08 10.38 119.48 11.10L119.48 11.10L119.48 11.10Q118.87 11.81 117.93 12.22L117.93 12.22L117.93 12.22Q116.97 12.63 115.78 12.64L115.78 12.64L115.78 12.64Q114.65 12.64 113.71 12.23L113.71 12.23L113.71 12.23Q112.77 11.83 112.21 11.14L112.21 11.14L112.21 11.14Q111.64 10.45 111.34 9.60L111.34 9.60L111.34 9.60Q111.04 8.72 111.04 7.83ZM112.29 7.38L112.29 7.38L112.29 7.38Q112.29 8.52 112.72 9.60L112.72 9.60L112.72 9.60Q113.13 10.64 114.06 11.33L114.06 11.33L114.06 11.33Q114.97 12.03 116.16 12.04L116.16 12.04L116.16 12.04Q117.53 12.04 118.47 11.01L118.47 11.01L118.47 11.01Q119.42 9.97 119.42 8.10L119.42 8.10L119.42 8.10Q119.42 5.99 118.25 4.72L118.25 4.72L118.25 4.72Q117.11 3.46 115.60 3.45L115.60 3.45L115.60 3.45Q115.08 3.45 114.53 3.65L114.53 3.65L114.53 3.65Q113.99 3.85 113.48 4.25L113.48 4.25L113.48 4.25Q112.94 4.68 112.62 5.48L112.62 5.48L112.62 5.48Q112.29 6.27 112.29 7.38ZM129.14 3.64L128.75 3.64L128.77 3.08L131.99 3.08L131.99 3.08Q133.12 3.08 133.72 3.21L133.72 3.21L133.72 3.21Q134.37 3.37 134.83 3.75L134.83 3.75L134.83 3.75Q135.84 4.57 135.84 5.71L135.84 5.71L135.84 5.71Q135.84 6.43 135.37 7.04L135.37 7.04L135.37 7.04Q134.87 7.66 133.84 7.92L133.84 7.92L136.53 11.49L136.53 11.49Q136.83 11.87 137.13 11.87L137.13 11.87L137.73 11.87L137.76 12.41L135.73 12.41L132.73 8.10L132.56 8.10L132.56 8.10Q132.52 8.10 132.47 8.11L132.47 8.11L132.47 8.11Q132.41 8.11 132.40 8.11L132.40 8.11L132.40 8.11Q131.52 8.11 131.12 8.03L131.12 8.03L131.12 11.46L131.12 11.46Q131.12 11.76 131.26 11.81L131.26 11.81L131.26 11.81Q131.39 11.87 132.09 11.87L132.09 11.87L132.80 11.87L132.77 12.41L129.05 12.41L129.05 11.87L129.37 11.87L129.37 11.87Q129.83 11.87 129.90 11.81L129.90 11.81L129.90 11.81Q129.99 11.74 129.99 11.46L129.99 11.46L129.99 4.14L129.99 4.14Q129.99 3.82 129.79 3.73L129.79 3.73L129.79 3.73Q129.57 3.64 129.14 3.64L129.14 3.64ZM131.12 4.28L131.12 7.57L131.12 7.57Q131.30 7.70 132.02 7.71L132.02 7.71L132.02 7.71Q133.29 7.71 133.87 7.27L133.87 7.27L133.87 7.27Q134.46 6.84 134.46 5.92L134.46 5.92L134.46 5.92Q134.46 4.92 133.68 4.27L133.68 4.27L133.68 4.27Q132.92 3.64 131.54 3.64L131.54 3.64L131.54 3.64Q131.29 3.64 131.21 3.75L131.21 3.75L131.21 3.75Q131.13 3.84 131.12 4.28L131.12 4.28ZM155.57 3.64L155.08 3.64L155.09 3.08L158.68 3.08L158.68 3.64L158.05 3.64L158.05 3.64Q157.67 3.64 157.56 3.72L157.56 3.72L157.56 3.72Q157.45 3.80 157.45 4.16L157.45 4.16L157.45 11.22L157.45 11.22Q157.45 11.57 157.53 11.67L157.53 11.67L157.53 11.67Q157.62 11.77 157.91 11.77L157.91 11.77L157.91 11.77Q160.78 11.74 161.44 11.63L161.44 11.63L161.44 11.63Q161.65 11.61 161.73 11.39L161.73 11.39L161.73 11.39Q161.81 11.17 162.01 10.05L162.01 10.05L162.50 10.08L162.04 12.41L155.28 12.41L155.26 11.87L155.65 11.87L155.65 11.87Q156.16 11.87 156.23 11.80L156.23 11.80L156.23 11.80Q156.31 11.72 156.32 11.33L156.32 11.33L156.32 4.09L156.32 4.09Q156.32 3.80 156.16 3.72L156.16 3.72L156.16 3.72Q156.01 3.64 155.57 3.64L155.57 3.64ZM170.62 7.83L170.62 7.83L170.62 7.83Q170.62 6.62 171.02 5.68L171.02 5.68L171.02 5.68Q171.44 4.72 172.13 4.12L172.13 4.12L172.13 4.12Q172.82 3.51 173.68 3.19L173.68 3.19L173.68 3.19Q174.52 2.88 175.47 2.88L175.47 2.88L175.47 2.88Q176.73 2.88 177.78 3.40L177.78 3.40L177.78 3.40Q178.86 3.93 179.57 5.07L179.57 5.07L179.57 5.07Q180.27 6.17 180.28 7.75L180.28 7.75L180.28 7.75Q180.28 8.70 179.97 9.54L179.97 9.54L179.97 9.54Q179.66 10.38 179.06 11.10L179.06 11.10L179.06 11.10Q178.45 11.81 177.52 12.22L177.52 12.22L177.52 12.22Q176.55 12.63 175.36 12.64L175.36 12.64L175.36 12.64Q174.23 12.64 173.29 12.23L173.29 12.23L173.29 12.23Q172.35 11.83 171.79 11.14L171.79 11.14L171.79 11.14Q171.22 10.45 170.93 9.60L170.93 9.60L170.93 9.60Q170.62 8.72 170.62 7.83ZM171.88 7.38L171.88 7.38L171.88 7.38Q171.88 8.52 172.31 9.60L172.31 9.60L172.31 9.60Q172.71 10.64 173.64 11.33L173.64 11.33L173.64 11.33Q174.55 12.03 175.74 12.04L175.74 12.04L175.74 12.04Q177.11 12.04 178.05 11.01L178.05 11.01L178.05 11.01Q179.00 9.97 179.00 8.10L179.00 8.10L179.00 8.10Q179.00 5.99 177.84 4.72L177.84 4.72L177.84 4.72Q176.69 3.46 175.18 3.45L175.18 3.45L175.18 3.45Q174.66 3.45 174.11 3.65L174.11 3.65L174.11 3.65Q173.57 3.85 173.07 4.25L173.07 4.25L173.07 4.25Q172.52 4.68 172.20 5.48L172.20 5.48L172.20 5.48Q171.88 6.27 171.88 7.38ZM188.77 8.02L188.77 8.02L188.77 8.02Q188.77 6.86 189.25 5.83L189.25 5.83L189.25 5.83Q189.71 4.85 190.46 4.27L190.46 4.27L190.46 4.27Q191.21 3.69 192.10 3.37L192.10 3.37L192.10 3.37Q193.00 3.05 193.84 3.05L193.84 3.05L193.84 3.05Q194.71 3.05 195.38 3.16L195.38 3.16L195.38 3.16Q196.01 3.26 196.30 3.37L196.30 3.37L196.30 3.37Q196.61 3.48 196.64 3.48L196.64 3.48L196.64 3.48Q196.81 3.48 196.83 3.41L196.83 3.41L196.83 3.41Q196.86 3.33 196.86 3.09L196.86 3.09L196.86 2.97L197.39 2.97L197.39 2.97Q197.44 4.30 197.57 5.64L197.57 5.64L197.06 5.65L197.06 5.65Q197.03 5.40 197.02 5.26L197.02 5.26L197.02 5.26Q197.02 5.20 197.01 5.13L197.01 5.13L197.01 5.13Q197.00 5.07 197.00 5.02L197.00 5.02L197.00 5.02Q196.99 4.98 196.99 4.95L196.99 4.95L196.99 4.95Q196.96 4.84 196.96 4.74L196.96 4.74L196.96 4.74Q196.96 4.68 196.92 4.59L196.92 4.59L196.92 4.59Q196.92 4.57 196.89 4.55L196.89 4.55L196.89 4.55Q196.86 4.52 196.86 4.50L196.86 4.50L196.86 4.50Q196.83 4.44 196.77 4.41L196.77 4.41L196.77 4.41Q196.72 4.38 196.70 4.37L196.70 4.37L196.70 4.37Q196.67 4.36 196.64 4.35L196.64 4.35L196.64 4.35Q196.63 4.35 196.60 4.33L196.60 4.33L196.60 4.33Q196.58 4.31 196.54 4.29L196.54 4.29L196.54 4.29Q196.50 4.27 196.46 4.25L196.46 4.25L196.46 4.25Q196.23 4.16 196.21 4.14L196.21 4.14L196.21 4.14Q195.86 3.96 195.21 3.83L195.21 3.83L195.21 3.83Q194.54 3.71 193.88 3.71L193.88 3.71L193.88 3.71Q192.16 3.71 191.06 4.84L191.06 4.84L191.06 4.84Q189.96 5.99 189.96 7.62L189.96 7.62L189.96 7.62Q189.96 9.35 191.18 10.69L191.18 10.69L191.18 10.69Q192.38 12.02 194.20 12.02L194.20 12.02L194.20 12.02Q195.21 12.02 196.15 11.49L196.15 11.49L196.15 11.49Q197.10 10.94 197.13 10.58L197.13 10.58L197.17 9.41L197.66 9.41L197.58 11.45L197.58 11.45Q197.51 11.49 197.38 11.57L197.38 11.57L197.38 11.57Q197.33 11.60 196.86 11.85L196.86 11.85L196.86 11.85Q196.49 12.05 196.04 12.23L196.04 12.23L196.04 12.23Q195.68 12.39 195.03 12.51L195.03 12.51L195.03 12.51Q194.42 12.63 193.85 12.64L193.85 12.64L193.85 12.64Q191.47 12.64 190.11 11.39L190.11 11.39L190.11 11.39Q188.77 10.14 188.77 8.02ZM205.71 12.41L205.69 11.87L205.86 11.87L205.86 11.87Q206.25 11.87 206.38 11.73L206.38 11.73L206.38 11.73Q206.51 11.57 206.84 10.83L206.84 10.83L207.75 8.82L208.33 7.53L208.33 7.53Q208.59 6.97 208.63 6.86L208.63 6.86L208.63 6.86Q208.70 6.70 208.75 6.60L208.75 6.60L208.75 6.60Q208.80 6.51 208.82 6.45L208.82 6.45L208.91 6.21L210.34 2.74L210.64 2.74L210.64 2.74Q211.49 4.98 213.68 10.25L213.68 10.25L213.68 10.25Q214.13 11.34 214.32 11.64L214.32 11.64L214.32 11.64Q214.46 11.87 214.89 11.87L214.89 11.87L215.11 11.87L215.09 12.41L211.90 12.41L211.91 11.87L212.33 11.87L212.33 11.87Q212.95 11.87 212.95 11.70L212.95 11.70L212.95 11.70Q212.95 11.63 212.81 11.27L212.81 11.27L211.77 8.72L208.52 8.72L207.42 11.18L207.42 11.18Q207.28 11.50 207.28 11.63L207.28 11.63L207.28 11.63Q207.28 11.79 207.38 11.83L207.38 11.83L207.38 11.83Q207.47 11.87 207.85 11.87L207.85 11.87L208.43 11.87L208.43 12.41L205.71 12.41ZM210.21 4.79L208.79 8.10L211.53 8.10L210.21 4.79ZM223.33 3.64L222.84 3.64L222.85 3.08L226.44 3.08L226.44 3.64L225.80 3.64L225.80 3.64Q225.43 3.64 225.32 3.72L225.32 3.72L225.32 3.72Q225.20 3.80 225.20 4.16L225.20 4.16L225.20 11.22L225.20 11.22Q225.20 11.57 225.29 11.67L225.29 11.67L225.29 11.67Q225.37 11.77 225.67 11.77L225.67 11.77L225.67 11.77Q228.54 11.74 229.20 11.63L229.20 11.63L229.20 11.63Q229.41 11.61 229.49 11.39L229.49 11.39L229.49 11.39Q229.57 11.17 229.77 10.05L229.77 10.05L230.26 10.08L229.80 12.41L223.04 12.41L223.02 11.87L223.41 11.87L223.41 11.87Q223.92 11.87 223.99 11.80L223.99 11.80L223.99 11.80Q224.07 11.72 224.08 11.33L224.08 11.33L224.08 4.09L224.08 4.09Q224.08 3.80 223.92 3.72L223.92 3.72L223.92 3.72Q223.77 3.64 223.33 3.64L223.33 3.64Z"></path></g></svg>