<svg data-v-fde0c5aa="" xmlns="http://www.w3.org/2000/svg" viewBox="0 0 300 300" class="font"><!----><defs data-v-fde0c5aa=""><!----></defs><rect data-v-fde0c5aa="" fill="transparent" x="0" y="0" width="300px" height="300px" class="logo-background-square"></rect><defs data-v-fde0c5aa=""><linearGradient data-v-fde0c5aa="" gradientTransform="rotate(25)" id="77d47dd9-541a-4dc6-a8f1-70e8e0f42aa2" x1="0%" y1="0%" x2="100%" y2="0%"><stop data-v-fde0c5aa="" offset="0%" stop-color="#0076DD" stop-opacity="1"></stop><stop data-v-fde0c5aa="" offset="100%" stop-color="#E600E9" stop-opacity="1"></stop></linearGradient></defs><g data-v-fde0c5aa="" id="fe68ec02-3d71-4bb0-aacd-7dbe201f8c42" fill="url(#77d47dd9-541a-4dc6-a8f1-70e8e0f42aa2)" transform="matrix(7.500852584838867,0,0,7.500852584838867,36.774633419037215,74.01636444002409)"><path d="M1.68 6.56L0.43 6.28L0.50 5.89L2.73 5.89L7.29 12.86L7.29 6.51L6.03 6.28L6.09 5.89L9.17 5.89L9.09 6.28L7.96 6.49L7.96 14.42L7.25 14.56L2.37 7.24L2.37 13.78L3.63 13.97L3.56 14.40L0.50 14.40L0.54 14L1.68 13.74L1.68 6.56ZM11.85 7.39L11.85 7.39L11.85 7.39Q11.85 8.19 12.89 9.26L12.89 9.26L12.89 9.26Q13.44 8.86 13.72 8.49L13.72 8.49L13.72 8.49Q13.99 8.12 13.99 7.56L13.99 7.56L13.99 7.56Q13.99 7.01 13.70 6.60L13.70 6.60L13.70 6.60Q13.40 6.19 12.91 6.19L12.91 6.19L12.91 6.19Q12.42 6.19 12.13 6.55L12.13 6.55L12.13 6.55Q11.85 6.90 11.85 7.39ZM12.28 10.11L12.28 10.11Q11.69 10.54 11.34 11.02L11.34 11.02L11.34 11.02Q10.99 11.49 10.99 12.15L10.99 12.15L10.99 12.15Q10.99 12.82 11.40 13.31L11.40 13.31L11.40 13.31Q11.80 13.81 12.48 13.81L12.48 13.81L12.48 13.81Q13.58 13.81 14.39 12.44L14.39 12.44L12.35 10.12L12.28 10.11ZM12.00 9.70L12.00 9.70L12.00 9.70Q11.03 8.70 11.03 7.81L11.03 7.81L11.03 7.81Q11.03 6.92 11.63 6.31L11.63 6.31L11.63 6.31Q12.24 5.70 13.08 5.70L13.08 5.70L13.08 5.70Q13.92 5.70 14.42 6.15L14.42 6.15L14.42 6.15Q14.92 6.60 14.92 7.45L14.92 7.45L14.92 7.45Q14.92 8.04 14.49 8.56L14.49 8.56L14.49 8.56Q14.06 9.08 13.26 9.61L13.26 9.61L13.26 9.66L14.92 11.55L16.17 9.47L15.10 9.22L15.14 8.85L18.05 8.85L17.99 9.22L16.84 9.45L15.34 11.96L15.34 11.96Q16.78 13.67 17.69 13.96L17.69 13.96L17.96 14.04L17.89 14.41L17.89 14.41Q17.54 14.53 17.17 14.53L17.17 14.53L17.17 14.53Q16.32 14.53 15.44 13.56L15.44 13.56L14.79 12.84L14.79 12.84Q13.92 14.11 13.00 14.40L13.00 14.40L13.00 14.40Q12.60 14.53 12.13 14.53L12.13 14.53L12.13 14.53Q11.16 14.53 10.56 13.96L10.56 13.96L10.56 13.96Q9.97 13.39 9.97 12.53L9.97 12.53L9.97 12.53Q9.97 11.67 10.50 11.00L10.50 11.00L10.50 11.00Q11.03 10.32 12.00 9.70ZM21.75 14.40L18.70 14.40L18.75 14.03L19.90 13.77L20.43 6.53L19.17 6.28L19.23 5.89L21.69 5.89L22.20 7.20L24.17 12.56L26.45 6.93L26.91 5.89L29.37 5.89L29.32 6.28L28.15 6.51L28.52 13.81L29.76 13.99L29.72 14.40L26.30 14.40L26.36 14.03L27.51 13.77L27.13 6.97L24.23 14.02L23.63 14.12L21.05 7.16L20.57 13.81L21.82 13.99L21.75 14.40Z"></path></g><!----><!----></svg>